<svg width="133" height="131" viewBox="0 0 133 131" fill="none" xmlns="http://www.w3.org/2000/svg">
<g filter="url(#filter0_f_4787_12452)">
<g clip-path="url(#paint0_angular_4787_12452_clip_path)" data-figma-skip-parse="true"><g transform="matrix(-0.0121514 0.0210986 -0.0353359 -0.0282947 65.112 57.0888)"><foreignObject x="-1100.02" y="-1100.02" width="2200.04" height="2200.04"><div xmlns="http://www.w3.org/1999/xhtml" style="background:conic-gradient(from 90deg,rgba(70, 136, 255, 1) 0deg,rgba(70, 192, 255, 1) 58.6784deg,rgba(35, 212, 123, 1) 124.761deg,rgba(255, 168, 0, 1) 181.574deg,rgba(255, 37, 99, 1) 222.855deg,rgba(121, 138, 255, 1) 317.785deg,rgba(71, 134, 255, 1) 356.877deg,rgba(70, 136, 255, 1) 360deg);height:100%;width:100%;opacity:1"></div></foreignObject></g></g><path d="M85.7835 56.0231L47.3762 45.0747C45.8279 44.6333 44.491 46.2414 45.1905 47.7035L62.5432 83.9762C63.2635 85.4818 65.4246 85.3687 65.9817 83.7961L71.3979 68.5099C71.5478 68.0869 71.8427 67.7322 72.2294 67.5098L86.205 59.4721C87.6427 58.6452 87.3778 56.4776 85.7835 56.0231Z" data-figma-gradient-fill="{&#34;type&#34;:&#34;GRADIENT_ANGULAR&#34;,&#34;stops&#34;:[{&#34;color&#34;:{&#34;r&#34;:0.27450981736183167,&#34;g&#34;:0.75294119119644165,&#34;b&#34;:1.0,&#34;a&#34;:1.0},&#34;position&#34;:0.16299553215503693},{&#34;color&#34;:{&#34;r&#34;:0.13943056762218475,&#34;g&#34;:0.83233171701431274,&#34;b&#34;:0.48588111996650696,&#34;a&#34;:1.0},&#34;position&#34;:0.34655869007110596},{&#34;color&#34;:{&#34;r&#34;:1.0,&#34;g&#34;:0.66071432828903198,&#34;b&#34;:0.0,&#34;a&#34;:1.0},&#34;position&#34;:0.50437217950820923},{&#34;color&#34;:{&#34;r&#34;:1.0,&#34;g&#34;:0.146972656250,&#34;b&#34;:0.38866376876831055,&#34;a&#34;:1.0},&#34;position&#34;:0.61904162168502808},{&#34;color&#34;:{&#34;r&#34;:0.47450980544090271,&#34;g&#34;:0.54117649793624878,&#34;b&#34;:1.0,&#34;a&#34;:1.0},&#34;position&#34;:0.88273561000823975},{&#34;color&#34;:{&#34;r&#34;:0.27843138575553894,&#34;g&#34;:0.52549022436141968,&#34;b&#34;:1.0,&#34;a&#34;:1.0},&#34;position&#34;:0.99132454395294189}],&#34;stopsVar&#34;:[{&#34;color&#34;:{&#34;r&#34;:0.27450981736183167,&#34;g&#34;:0.75294119119644165,&#34;b&#34;:1.0,&#34;a&#34;:1.0},&#34;position&#34;:0.16299553215503693},{&#34;color&#34;:{&#34;r&#34;:0.13943056762218475,&#34;g&#34;:0.83233171701431274,&#34;b&#34;:0.48588111996650696,&#34;a&#34;:1.0},&#34;position&#34;:0.34655869007110596},{&#34;color&#34;:{&#34;r&#34;:1.0,&#34;g&#34;:0.66071432828903198,&#34;b&#34;:0.0,&#34;a&#34;:1.0},&#34;position&#34;:0.50437217950820923},{&#34;color&#34;:{&#34;r&#34;:1.0,&#34;g&#34;:0.146972656250,&#34;b&#34;:0.38866376876831055,&#34;a&#34;:1.0},&#34;position&#34;:0.61904162168502808},{&#34;color&#34;:{&#34;r&#34;:0.47450980544090271,&#34;g&#34;:0.54117649793624878,&#34;b&#34;:1.0,&#34;a&#34;:1.0},&#34;position&#34;:0.88273561000823975},{&#34;color&#34;:{&#34;r&#34;:0.27843138575553894,&#34;g&#34;:0.52549022436141968,&#34;b&#34;:1.0,&#34;a&#34;:1.0},&#34;position&#34;:0.99132454395294189}],&#34;transform&#34;:{&#34;m00&#34;:-24.302787780761719,&#34;m01&#34;:-70.671775817871094,&#34;m02&#34;:112.59926605224609,&#34;m10&#34;:42.197238922119141,&#34;m11&#34;:-56.589370727539062,&#34;m12&#34;:64.284843444824219},&#34;opacity&#34;:1.0,&#34;blendMode&#34;:&#34;NORMAL&#34;,&#34;visible&#34;:true}"/>
<path d="M47.1238 45.9807C46.3497 45.76 45.6808 46.5645 46.0306 47.2956L63.3837 83.5674C63.7439 84.3203 64.8244 84.2639 65.103 83.4776L70.5189 68.1912C70.7437 67.5569 71.1863 67.0244 71.7663 66.6909L85.742 58.6535C86.4605 58.2399 86.3281 57.1563 85.5311 56.9291L47.1238 45.9807Z" stroke="white" stroke-width="1.875"/>
</g>
<g filter="url(#filter1_f_4787_12452)">
<g clip-path="url(#paint1_angular_4787_12452_clip_path)" data-figma-skip-parse="true"><g transform="matrix(-0.0108889 0.0189066 -0.0316646 -0.025355 64.6152 55.7132)"><foreignObject x="-1109.3" y="-1109.3" width="2218.61" height="2218.61"><div xmlns="http://www.w3.org/1999/xhtml" style="background:conic-gradient(from 90deg,rgba(70, 136, 255, 1) 0deg,rgba(70, 192, 255, 1) 58.6784deg,rgba(35, 212, 123, 1) 124.761deg,rgba(255, 168, 0, 1) 181.574deg,rgba(255, 37, 99, 1) 222.855deg,rgba(121, 138, 255, 1) 317.785deg,rgba(71, 134, 255, 1) 356.877deg,rgba(70, 136, 255, 1) 360deg);height:100%;width:100%;opacity:1"></div></foreignObject></g></g><path d="M82.6933 54.6312L49.1363 45.0654C47.5881 44.6241 46.2512 46.2321 46.9507 47.6943L62.1119 79.3861C62.8322 80.8918 64.9933 80.7786 65.5504 79.2061L70.224 66.0158C70.3738 65.5928 70.6688 65.2381 71.0555 65.0157L83.1147 58.0801C84.5524 57.2533 84.2875 55.0857 82.6933 54.6312Z" data-figma-gradient-fill="{&#34;type&#34;:&#34;GRADIENT_ANGULAR&#34;,&#34;stops&#34;:[{&#34;color&#34;:{&#34;r&#34;:0.27450981736183167,&#34;g&#34;:0.75294119119644165,&#34;b&#34;:1.0,&#34;a&#34;:1.0},&#34;position&#34;:0.16299553215503693},{&#34;color&#34;:{&#34;r&#34;:0.13943056762218475,&#34;g&#34;:0.83233171701431274,&#34;b&#34;:0.48588111996650696,&#34;a&#34;:1.0},&#34;position&#34;:0.34655869007110596},{&#34;color&#34;:{&#34;r&#34;:1.0,&#34;g&#34;:0.66071432828903198,&#34;b&#34;:0.0,&#34;a&#34;:1.0},&#34;position&#34;:0.50437217950820923},{&#34;color&#34;:{&#34;r&#34;:1.0,&#34;g&#34;:0.146972656250,&#34;b&#34;:0.38866376876831055,&#34;a&#34;:1.0},&#34;position&#34;:0.61904162168502808},{&#34;color&#34;:{&#34;r&#34;:0.47450980544090271,&#34;g&#34;:0.54117649793624878,&#34;b&#34;:1.0,&#34;a&#34;:1.0},&#34;position&#34;:0.88273561000823975},{&#34;color&#34;:{&#34;r&#34;:0.27843138575553894,&#34;g&#34;:0.52549022436141968,&#34;b&#34;:1.0,&#34;a&#34;:1.0},&#34;position&#34;:0.99132454395294189}],&#34;stopsVar&#34;:[{&#34;color&#34;:{&#34;r&#34;:0.27450981736183167,&#34;g&#34;:0.75294119119644165,&#34;b&#34;:1.0,&#34;a&#34;:1.0},&#34;position&#34;:0.16299553215503693},{&#34;color&#34;:{&#34;r&#34;:0.13943056762218475,&#34;g&#34;:0.83233171701431274,&#34;b&#34;:0.48588111996650696,&#34;a&#34;:1.0},&#34;position&#34;:0.34655869007110596},{&#34;color&#34;:{&#34;r&#34;:1.0,&#34;g&#34;:0.66071432828903198,&#34;b&#34;:0.0,&#34;a&#34;:1.0},&#34;position&#34;:0.50437217950820923},{&#34;color&#34;:{&#34;r&#34;:1.0,&#34;g&#34;:0.146972656250,&#34;b&#34;:0.38866376876831055,&#34;a&#34;:1.0},&#34;position&#34;:0.61904162168502808},{&#34;color&#34;:{&#34;r&#34;:0.47450980544090271,&#34;g&#34;:0.54117649793624878,&#34;b&#34;:1.0,&#34;a&#34;:1.0},&#34;position&#34;:0.88273561000823975},{&#34;color&#34;:{&#34;r&#34;:0.27843138575553894,&#34;g&#34;:0.52549022436141968,&#34;b&#34;:1.0,&#34;a&#34;:1.0},&#34;position&#34;:0.99132454395294189}],&#34;transform&#34;:{&#34;m00&#34;:-21.777833938598633,&#34;m01&#34;:-63.329284667968750,&#34;m02&#34;:107.16878509521484,&#34;m10&#34;:37.813129425048828,&#34;m11&#34;:-50.709983825683594,&#34;m12&#34;:62.161670684814453},&#34;opacity&#34;:1.0,&#34;blendMode&#34;:&#34;NORMAL&#34;,&#34;visible&#34;:true}"/>
<path d="M48.8836 45.9718C48.1096 45.7514 47.4414 46.5549 47.791 47.2859L62.9523 78.9785C63.3127 79.7308 64.3929 79.6733 64.6714 78.8873L69.3448 65.6977C69.5696 65.0633 70.0121 64.5309 70.5922 64.1973L82.6514 57.2613C83.37 56.8479 83.2379 55.765 82.4413 55.5375L48.8836 45.9718Z" stroke="white" stroke-width="1.875"/>
</g>
<path d="M82.2921 45.7122L52.308 37.1649C50.7598 36.7236 49.4228 38.3316 50.1223 39.7938L63.6693 68.1113C64.3896 69.617 66.5507 69.5038 67.1079 67.9313L71.2344 56.285C71.3843 55.862 71.6792 55.5073 72.0659 55.2849L82.7135 49.1611C84.1512 48.3343 83.8864 46.1667 82.2921 45.7122Z" fill="url(#paint2_linear_4787_12452)"/>
<path d="M52.308 37.1649L52.0051 38.2523L52.0051 38.2523L52.308 37.1649ZM82.2921 45.7122L81.9892 46.7996V46.7996L82.2921 45.7122ZM82.7135 49.1611L83.2693 50.1431L83.2693 50.1431L82.7135 49.1611ZM72.0659 55.2849L71.5101 54.303V54.303L72.0659 55.2849ZM71.2344 56.285L72.2891 56.6669L72.2891 56.6669L71.2344 56.285ZM67.1079 67.9313L66.0532 67.5494L66.0532 67.5494L67.1079 67.9313ZM63.6693 68.1113L64.6778 67.6214V67.6214L63.6693 68.1113ZM50.1223 39.7938L49.1139 40.2837L49.1139 40.2837L50.1223 39.7938ZM52.308 37.1649L52.6109 36.0775L82.5951 44.6248L82.2921 45.7122L81.9892 46.7996L52.0051 38.2523L52.308 37.1649ZM82.7135 49.1611L83.2693 50.1431L72.6217 56.2668L72.0659 55.2849L71.5101 54.303L82.1578 48.1792L82.7135 49.1611ZM71.2344 56.285L72.2891 56.6669L68.1626 68.3132L67.1079 67.9313L66.0532 67.5494L70.1797 55.9031L71.2344 56.285ZM63.6693 68.1113L62.6609 68.6012L49.1139 40.2837L50.1223 39.7938L51.1308 39.3039L64.6778 67.6214L63.6693 68.1113ZM67.1079 67.9313L68.1626 68.3132C67.2711 70.8293 63.8133 71.0103 62.6609 68.6012L63.6693 68.1113L64.6778 67.6214C64.9659 68.2237 65.8304 68.1784 66.0532 67.5494L67.1079 67.9313ZM72.0659 55.2849L72.6217 56.2668C72.467 56.3558 72.349 56.4977 72.2891 56.6669L71.2344 56.285L70.1797 55.9031C70.4195 55.2264 70.8914 54.6588 71.5101 54.303L72.0659 55.2849ZM82.2921 45.7122L82.5951 44.6248C85.1459 45.352 85.5696 48.8201 83.2693 50.1431L82.7135 49.1611L82.1578 48.1792C82.7328 47.8485 82.6269 46.9814 81.9892 46.7996L82.2921 45.7122ZM52.308 37.1649L52.0051 38.2523C51.3858 38.0758 50.851 38.719 51.1308 39.3039L50.1223 39.7938L49.1139 40.2837C47.9947 37.9442 50.1338 35.3713 52.6109 36.0775L52.308 37.1649Z" fill="white"/>
<g clip-path="url(#paint3_angular_4787_12452_clip_path)" data-figma-skip-parse="true"><g transform="matrix(-0.0348536 0.00379526 0.00287952 -0.0651208 66.1245 46.8063)"><foreignObject x="-903.921" y="-903.921" width="1807.84" height="1807.84"><div xmlns="http://www.w3.org/1999/xhtml" style="background:conic-gradient(from 90deg,rgba(70, 136, 255, 1) 0deg,rgba(70, 192, 255, 1) 58.6784deg,rgba(35, 212, 123, 1) 124.761deg,rgba(255, 168, 0, 1) 181.574deg,rgba(255, 37, 99, 1) 222.855deg,rgba(121, 138, 255, 1) 317.785deg,rgba(71, 134, 255, 1) 356.877deg,rgba(70, 136, 255, 1) 360deg);height:100%;width:100%;opacity:1"></div></foreignObject></g></g><path d="M52.308 37.1649L52.0051 38.2523L52.0051 38.2523L52.308 37.1649ZM82.2921 45.7122L81.9892 46.7996V46.7996L82.2921 45.7122ZM82.7135 49.1611L83.2693 50.1431L83.2693 50.1431L82.7135 49.1611ZM72.0659 55.2849L71.5101 54.303V54.303L72.0659 55.2849ZM71.2344 56.285L72.2891 56.6669L72.2891 56.6669L71.2344 56.285ZM67.1079 67.9313L66.0532 67.5494L66.0532 67.5494L67.1079 67.9313ZM63.6693 68.1113L64.6778 67.6214V67.6214L63.6693 68.1113ZM50.1223 39.7938L49.1139 40.2837L49.1139 40.2837L50.1223 39.7938ZM52.308 37.1649L52.6109 36.0775L82.5951 44.6248L82.2921 45.7122L81.9892 46.7996L52.0051 38.2523L52.308 37.1649ZM82.7135 49.1611L83.2693 50.1431L72.6217 56.2668L72.0659 55.2849L71.5101 54.303L82.1578 48.1792L82.7135 49.1611ZM71.2344 56.285L72.2891 56.6669L68.1626 68.3132L67.1079 67.9313L66.0532 67.5494L70.1797 55.9031L71.2344 56.285ZM63.6693 68.1113L62.6609 68.6012L49.1139 40.2837L50.1223 39.7938L51.1308 39.3039L64.6778 67.6214L63.6693 68.1113ZM67.1079 67.9313L68.1626 68.3132C67.2711 70.8293 63.8133 71.0103 62.6609 68.6012L63.6693 68.1113L64.6778 67.6214C64.9659 68.2237 65.8304 68.1784 66.0532 67.5494L67.1079 67.9313ZM72.0659 55.2849L72.6217 56.2668C72.467 56.3558 72.349 56.4977 72.2891 56.6669L71.2344 56.285L70.1797 55.9031C70.4195 55.2264 70.8914 54.6588 71.5101 54.303L72.0659 55.2849ZM82.2921 45.7122L82.5951 44.6248C85.1459 45.352 85.5696 48.8201 83.2693 50.1431L82.7135 49.1611L82.1578 48.1792C82.7328 47.8485 82.6269 46.9814 81.9892 46.7996L82.2921 45.7122ZM52.308 37.1649L52.0051 38.2523C51.3858 38.0758 50.851 38.719 51.1308 39.3039L50.1223 39.7938L49.1139 40.2837C47.9947 37.9442 50.1338 35.3713 52.6109 36.0775L52.308 37.1649Z" data-figma-gradient-fill="{&#34;type&#34;:&#34;GRADIENT_ANGULAR&#34;,&#34;stops&#34;:[{&#34;color&#34;:{&#34;r&#34;:0.27450981736183167,&#34;g&#34;:0.75294119119644165,&#34;b&#34;:1.0,&#34;a&#34;:1.0},&#34;position&#34;:0.16299553215503693},{&#34;color&#34;:{&#34;r&#34;:0.13943056762218475,&#34;g&#34;:0.83233171701431274,&#34;b&#34;:0.48588111996650696,&#34;a&#34;:1.0},&#34;position&#34;:0.34655869007110596},{&#34;color&#34;:{&#34;r&#34;:1.0,&#34;g&#34;:0.66071432828903198,&#34;b&#34;:0.0,&#34;a&#34;:1.0},&#34;position&#34;:0.50437217950820923},{&#34;color&#34;:{&#34;r&#34;:1.0,&#34;g&#34;:0.146972656250,&#34;b&#34;:0.38866376876831055,&#34;a&#34;:1.0},&#34;position&#34;:0.61904162168502808},{&#34;color&#34;:{&#34;r&#34;:0.47450980544090271,&#34;g&#34;:0.54117649793624878,&#34;b&#34;:1.0,&#34;a&#34;:1.0},&#34;position&#34;:0.88273561000823975},{&#34;color&#34;:{&#34;r&#34;:0.27843138575553894,&#34;g&#34;:0.52549022436141968,&#34;b&#34;:1.0,&#34;a&#34;:1.0},&#34;position&#34;:0.99132454395294189}],&#34;stopsVar&#34;:[{&#34;color&#34;:{&#34;r&#34;:0.27450981736183167,&#34;g&#34;:0.75294119119644165,&#34;b&#34;:1.0,&#34;a&#34;:1.0},&#34;position&#34;:0.16299553215503693},{&#34;color&#34;:{&#34;r&#34;:0.13943056762218475,&#34;g&#34;:0.83233171701431274,&#34;b&#34;:0.48588111996650696,&#34;a&#34;:1.0},&#34;position&#34;:0.34655869007110596},{&#34;color&#34;:{&#34;r&#34;:1.0,&#34;g&#34;:0.66071432828903198,&#34;b&#34;:0.0,&#34;a&#34;:1.0},&#34;position&#34;:0.50437217950820923},{&#34;color&#34;:{&#34;r&#34;:1.0,&#34;g&#34;:0.146972656250,&#34;b&#34;:0.38866376876831055,&#34;a&#34;:1.0},&#34;position&#34;:0.61904162168502808},{&#34;color&#34;:{&#34;r&#34;:0.47450980544090271,&#34;g&#34;:0.54117649793624878,&#34;b&#34;:1.0,&#34;a&#34;:1.0},&#34;position&#34;:0.88273561000823975},{&#34;color&#34;:{&#34;r&#34;:0.27843138575553894,&#34;g&#34;:0.52549022436141968,&#34;b&#34;:1.0,&#34;a&#34;:1.0},&#34;position&#34;:0.99132454395294189}],&#34;transform&#34;:{&#34;m00&#34;:-69.707145690917969,&#34;m01&#34;:5.7590465545654297,&#34;m02&#34;:98.098533630371094,&#34;m10&#34;:7.5905251502990723,&#34;m11&#34;:-130.24150085449219,&#34;m12&#34;:108.13179016113281},&#34;opacity&#34;:1.0,&#34;blendMode&#34;:&#34;NORMAL&#34;,&#34;visible&#34;:true}"/>
<defs>
<filter id="filter0_f_4787_12452" x="0" y="0" width="132.146" height="130.043" filterUnits="userSpaceOnUse" color-interpolation-filters="sRGB">
<feFlood flood-opacity="0" result="BackgroundImageFix"/>
<feBlend mode="normal" in="SourceGraphic" in2="BackgroundImageFix" result="shape"/>
<feGaussianBlur stdDeviation="22.5" result="effect1_foregroundBlur_4787_12452"/>
</filter>
<clipPath id="paint0_angular_4787_12452_clip_path"><path d="M85.7835 56.0231L47.3762 45.0747C45.8279 44.6333 44.491 46.2414 45.1905 47.7035L62.5432 83.9762C63.2635 85.4818 65.4246 85.3687 65.9817 83.7961L71.3979 68.5099C71.5478 68.0869 71.8427 67.7322 72.2294 67.5098L86.205 59.4721C87.6427 58.6452 87.3778 56.4776 85.7835 56.0231Z"/></clipPath><filter id="filter1_f_4787_12452" x="28.0098" y="26.2402" width="74.7959" height="72.9629" filterUnits="userSpaceOnUse" color-interpolation-filters="sRGB">
<feFlood flood-opacity="0" result="BackgroundImageFix"/>
<feBlend mode="normal" in="SourceGraphic" in2="BackgroundImageFix" result="shape"/>
<feGaussianBlur stdDeviation="9.375" result="effect1_foregroundBlur_4787_12452"/>
</filter>
<clipPath id="paint1_angular_4787_12452_clip_path"><path d="M82.6933 54.6312L49.1363 45.0654C47.5881 44.6241 46.2512 46.2321 46.9507 47.6943L62.1119 79.3861C62.8322 80.8918 64.9933 80.7786 65.5504 79.2061L70.224 66.0158C70.3738 65.5928 70.6688 65.2381 71.0555 65.0157L83.1147 58.0801C84.5524 57.2533 84.2875 55.0857 82.6933 54.6312Z"/></clipPath><clipPath id="paint3_angular_4787_12452_clip_path"><path d="M52.308 37.1649L52.0051 38.2523L52.0051 38.2523L52.308 37.1649ZM82.2921 45.7122L81.9892 46.7996V46.7996L82.2921 45.7122ZM82.7135 49.1611L83.2693 50.1431L83.2693 50.1431L82.7135 49.1611ZM72.0659 55.2849L71.5101 54.303V54.303L72.0659 55.2849ZM71.2344 56.285L72.2891 56.6669L72.2891 56.6669L71.2344 56.285ZM67.1079 67.9313L66.0532 67.5494L66.0532 67.5494L67.1079 67.9313ZM63.6693 68.1113L64.6778 67.6214V67.6214L63.6693 68.1113ZM50.1223 39.7938L49.1139 40.2837L49.1139 40.2837L50.1223 39.7938ZM52.308 37.1649L52.6109 36.0775L82.5951 44.6248L82.2921 45.7122L81.9892 46.7996L52.0051 38.2523L52.308 37.1649ZM82.7135 49.1611L83.2693 50.1431L72.6217 56.2668L72.0659 55.2849L71.5101 54.303L82.1578 48.1792L82.7135 49.1611ZM71.2344 56.285L72.2891 56.6669L68.1626 68.3132L67.1079 67.9313L66.0532 67.5494L70.1797 55.9031L71.2344 56.285ZM63.6693 68.1113L62.6609 68.6012L49.1139 40.2837L50.1223 39.7938L51.1308 39.3039L64.6778 67.6214L63.6693 68.1113ZM67.1079 67.9313L68.1626 68.3132C67.2711 70.8293 63.8133 71.0103 62.6609 68.6012L63.6693 68.1113L64.6778 67.6214C64.9659 68.2237 65.8304 68.1784 66.0532 67.5494L67.1079 67.9313ZM72.0659 55.2849L72.6217 56.2668C72.467 56.3558 72.349 56.4977 72.2891 56.6669L71.2344 56.285L70.1797 55.9031C70.4195 55.2264 70.8914 54.6588 71.5101 54.303L72.0659 55.2849ZM82.2921 45.7122L82.5951 44.6248C85.1459 45.352 85.5696 48.8201 83.2693 50.1431L82.7135 49.1611L82.1578 48.1792C82.7328 47.8485 82.6269 46.9814 81.9892 46.7996L82.2921 45.7122ZM52.308 37.1649L52.0051 38.2523C51.3858 38.0758 50.851 38.719 51.1308 39.3039L50.1223 39.7938L49.1139 40.2837C47.9947 37.9442 50.1338 35.3713 52.6109 36.0775L52.308 37.1649Z"/></clipPath><linearGradient id="paint2_linear_4787_12452" x1="72.5209" y1="56.2266" x2="51.1217" y2="38.22" gradientUnits="userSpaceOnUse">
<stop/>
<stop offset="0.498924" stop-color="#404040"/>
<stop offset="1" stop-color="#989898"/>
</linearGradient>
</defs>
</svg>
